# Aspose.3D Wavefront OBJ Exporter
# Copyright 2004-2021 Aspose Pty Ltd.
# File created: 10/18/2021 20:06:29


#
# object obj_21567837
#

v 2.7755575615628914E-16 -52.5 1.52587890625E-05
v 2.54999995231628416 -52.5 -4.41672515869140624
v 5.09999990463256836 -52.5 1.52587890625E-05
v 2.54999995231628416 52.5 -4.41672515869140624
v 5.09999990463256836 52.5 1.52587890625E-05
v 2.7755575615628914E-16 52.5 1.52587890625E-05
v -2.54999995231628416 -52.5 -4.41672515869140624
v -2.54999995231628416 52.5 -4.41672515869140624
v -5.09999990463256836 -52.5 1.52587890625E-05
v -5.09999990463256836 52.5 1.52587890625E-05
v -2.54999995231628416 -52.5 4.41672515869140624
v -2.54999995231628416 52.5 4.41672515869140624
v 2.54999995231628416 -52.5 4.41672515869140624
v 2.54999995231628416 52.5 4.41672515869140624
# 14 vertices

vn 0 -1 0
vn 0.86602592468261712 0 -0.499999076128006
vn 0 1 0
vn 0 0 -1
vn -0.86602592468261712 0 -0.499999076128006
vn -0.86602443456649776 0 0.50000166893005368
vn 0 0 1
vn 0.86602443456649776 0 0.50000166893005368
# 8 vertex normals

g obj_21567837
s 1
f 1//1 2//1 3//1
f 3//2 4//2 5//2
f 3//2 2//2 4//2
f 5//3 4//3 6//3
f 1//1 7//1 2//1
f 2//4 8//4 4//4
f 2//4 7//4 8//4
f 4//3 8//3 6//3
f 1//1 9//1 7//1
f 7//5 10//5 8//5
f 7//5 9//5 10//5
f 8//3 10//3 6//3
f 1//1 11//1 9//1
f 9//6 12//6 10//6
f 9//6 11//6 12//6
f 10//3 12//3 6//3
f 1//1 13//1 11//1
f 11//7 14//7 12//7
f 11//7 13//7 14//7
f 12//3 14//3 6//3
f 1//1 3//1 13//1
f 13//8 5//8 14//8
f 13//8 3//8 5//8
f 14//3 5//3 6//3
#24 polygons

